<?xml version="1.0" encoding="utf-8"?>
<!-- Generator: Adobe Illustrator 21.0.0, SVG Export Plug-In . SVG Version: 6.00 Build 0)  -->
<svg version="1.1" id="Layer_1" xmlns="http://www.w3.org/2000/svg" xmlns:xlink="http://www.w3.org/1999/xlink" x="0px" y="0px"
	 viewBox="0 0 16 16" style="enable-background:new 0 0 16 16;" xml:space="preserve">
<g>
	<path d="M12.8,7.7H3.2c-1.5,0-2.7,1.2-2.7,2.7v2.2c0,1.5,1.2,2.7,2.7,2.7h9.5c1.5,0,2.7-1.2,2.7-2.7v-2.2
		C15.5,8.9,14.3,7.7,12.8,7.7z M5.2,9.4H4.4v4.4H3.5V9.4H2.6V8.6h2.6C5.2,8.6,5.2,9.4,5.2,9.4z M7.7,13.8H7v-0.4
		c-0.1,0.2-0.3,0.3-0.4,0.4c-0.2,0.1-0.3,0.1-0.4,0.1c-0.2,0-0.3-0.1-0.4-0.2c-0.1-0.1-0.1-0.3-0.1-0.5V10h0.8v2.9
		c0,0.1,0,0.2,0,0.2c0,0,0.1,0.1,0.2,0.1c0.1,0,0.1,0,0.2-0.1C6.8,13,6.9,12.9,7,12.9V10h0.8V13.8z M10.5,13c0,0.3-0.1,0.5-0.2,0.6
		c-0.1,0.1-0.3,0.2-0.5,0.2c-0.1,0-0.3,0-0.4-0.1c-0.1-0.1-0.2-0.1-0.3-0.3v0.3H8.3V8.6h0.8v1.7c0.1-0.1,0.2-0.2,0.3-0.3
		C9.5,10,9.6,9.9,9.8,9.9c0.2,0,0.4,0.1,0.5,0.2c0.1,0.2,0.2,0.4,0.2,0.7L10.5,13L10.5,13z M13.1,12h-1.5v0.7c0,0.2,0,0.3,0.1,0.4
		c0.1,0.1,0.1,0.1,0.3,0.1c0.1,0,0.2,0,0.3-0.1c0-0.1,0.1-0.2,0.1-0.4v-0.2h0.8v0.2c0,0.4-0.1,0.7-0.3,0.9c-0.2,0.2-0.5,0.3-0.9,0.3
		c-0.3,0-0.6-0.1-0.8-0.3c-0.2-0.2-0.3-0.5-0.3-0.9V11c0-0.3,0.1-0.6,0.3-0.8c0.2-0.2,0.5-0.3,0.8-0.3c0.3,0,0.6,0.1,0.8,0.3
		c0.2,0.2,0.3,0.5,0.3,0.8V12z"/>
	<path d="M12,10.5c-0.1,0-0.2,0-0.3,0.1c-0.1,0.1-0.1,0.2-0.1,0.3v0.4h0.7V11c0-0.2,0-0.3-0.1-0.3C12.2,10.6,12.1,10.5,12,10.5z"/>
	<path d="M9.4,10.5c-0.1,0-0.1,0-0.2,0c-0.1,0-0.1,0.1-0.2,0.1V13c0.1,0.1,0.1,0.1,0.2,0.1c0.1,0,0.1,0,0.2,0c0.1,0,0.2,0,0.2-0.1
		c0-0.1,0.1-0.1,0.1-0.3v-2c0-0.1,0-0.2-0.1-0.3C9.6,10.6,9.5,10.5,9.4,10.5z"/>
	<polygon points="4.5,6.3 5.4,6.3 5.4,4 6.6,0.7 5.6,0.7 5,2.9 4.9,2.9 4.3,0.7 3.3,0.7 4.5,4.1 	"/>
	<path d="M7.9,6.4c0.4,0,0.7-0.1,0.9-0.3C9,5.9,9.1,5.6,9.1,5.3V3.1c0-0.3-0.1-0.6-0.3-0.8C8.6,2.1,8.3,2,7.9,2C7.5,2,7.2,2.1,7,2.3
		C6.8,2.5,6.6,2.8,6.6,3.1v2.2c0,0.4,0.1,0.6,0.3,0.8C7.2,6.3,7.5,6.4,7.9,6.4z M7.5,3.1c0-0.1,0-0.2,0.1-0.2
		c0.1-0.1,0.2-0.1,0.3-0.1c0.1,0,0.2,0,0.3,0.1C8.2,2.9,8.2,3,8.2,3.1v2.3c0,0.1,0,0.2-0.1,0.3C8.1,5.7,8,5.7,7.9,5.7
		c-0.1,0-0.2,0-0.3-0.1C7.5,5.6,7.5,5.5,7.5,5.4L7.5,3.1L7.5,3.1z"/>
	<path d="M10.4,6.4c0.2,0,0.3,0,0.5-0.1c0.2-0.1,0.3-0.2,0.5-0.4v0.5h0.9V2.2h-0.9v3.2c-0.1,0.1-0.2,0.2-0.3,0.2
		C11,5.6,11,5.6,10.9,5.6c-0.1,0-0.1,0-0.2-0.1c0,0-0.1-0.1-0.1-0.2V2.2H9.8v3.5c0,0.2,0.1,0.4,0.1,0.6C10.1,6.3,10.2,6.4,10.4,6.4z
		"/>
</g>
</svg>
