<?xml version="1.0" encoding="utf-8"?>
<!-- Generator: Adobe Illustrator 20.0.0, SVG Export Plug-In . SVG Version: 6.00 Build 0)  -->
<svg version="1.1" id="Layer_1" xmlns="http://www.w3.org/2000/svg" xmlns:xlink="http://www.w3.org/1999/xlink" x="0px" y="0px"
	 viewBox="0 0 16 16" style="enable-background:new 0 0 16 16;" xml:space="preserve">
<g id="Layer_16">
	<g id="XMLID_1315_">
		<path id="XMLID_103_" d="M14.1,6.3C14,4.7,12.7,3.4,11,3.4S7.9,4.8,7.9,6.5v0.1C7.7,6.8,7.6,6.9,7.5,7.1c-1.3,0.1-3.2,0-4-0.8
			C2.4,5.3,2.8,8,4.9,8.9C2.4,9.9,0,8.7,0,8.7s1.7,3.9,7,3.9c3.9,0,5.4-2.4,5.9-3.6c0.3-0.3,0.6-0.6,0.8-0.9L16,7.3L14.1,6.3z
			 M11.6,6.7c-0.5,0-0.9-0.4-0.9-0.9s0.4-0.9,0.9-0.9s0.9,0.4,0.9,0.9S12.1,6.7,11.6,6.7z"/>
	</g>
</g>
</svg>
